<?xml version="1.0" encoding="utf-8"?>
<!DOCTYPE svg PUBLIC "-//W3C//DTD SVG 1.1//EN" "http://www.w3.org/Graphics/SVG/1.1/DTD/svg11.dtd">
<svg version="1.1" id="Layer_1" xmlns="http://www.w3.org/2000/svg" xmlns:xlink="http://www.w3.org/1999/xlink" x="0px" y="0px"
	 viewBox="85.9981 315.2162 1095.0018 1482.0808" enable-background="new 85.9981 315.2162 1095.0018 1482.0808"
	 xml:space="preserve">
<g id="_x23_ffffffff">
</g>
<g>
	<path d="M648.25,437.37c12.09-18.79,25.4-36.8,36.55-56.19c15.78,9.27,19.98,28.33,27.47,43.67c-5.33,9.03-8.87,19.02-14.67,27.78
		c-2.56,3.93-6.34,7.35-11.14,8.03c1.73,4.1,3.13,8.48,1.72,12.91c-4.09-0.33-6.97-4.08-11.2-3.72c2.05,3.33,3.65,7.2,2.91,11.19
		c-1.55,10.04-8.7,18.03-11.22,27.77c3.64,0.4,7.67,0.01,10.37-2.76c6.29-6.2,8.3-15.15,12.01-22.89
		c5.83-11.97,10.78-24.35,16.61-36.33c12.61-21.33,21.89-44.62,36.3701-64.83c0.31,0.17,0.9399,0.52,1.2599,0.69
		c19.61,33.84,34.59,70.21,46.5,107.41c20.71,64.59,30.95,132.2,33.47,199.88c3.89,102.17-6.78,204.41-24.82,304.89
		c-4.16,22.81-8.73,45.5601-13.71,68.21c-1.27,5.3301-1.87,10.9601-4.91,15.6801c-2.34,3.6899-2.57,8.14-1.96,12.37
		c-12.14,12.34-28.69,18.54-44.25,25.28c-8.01,3.46-15.96,7.11-23.44,11.62c-14.8-12.78-34.83-18.29-54.15-17.5
		c-17.93,0.75-35.86,6.4099-50.28,17.24c-11.08,8.35-19.96,20.26-22.78,34.03c-7.48-2.17-15.23,0.7699-22.7-1.29
		c-4.81-75.29-14.16-150.28-27.62-224.51c-8.47,3.03-9.94,14.29-18.94,16.54c-7.64-8.64-13.08-19.36-22.72-26.13
		c-5.43,1.3-10.09,4.84-13.19,9.44c-5.59,7.84-8.76,18.05-17.63,23.02c-8.48-7.89-13.66-18.39-20.24-27.74
		c-0.82-0.97-1.42-2.24-2.55-2.85c-14.78,8.21-21.13,26.11-36.5,33.5099c-4.59-1.24-7.68-5.61-10.18-9.44
		c-4.83-7.7-7.48-17.62-15.78-22.45c-16.29,7.77-22.55,27.44-38.84,35.39c-10.06-9.99-16.22-23.33-27.32-32.36
		c-16.63,9.41-23.99,28.89-40.23,38.84c-8.77-10.4-12.48-24.43-22.66-33.73c-1.96,0.15-3.67,1.25-5.31,2.25
		c-11.12,7.34-14.67,22.23-26.96,28.25c-21.67-27.06-34.69-59.88-44.06-92.96c-13-46.61-19.18-94.74-25.65-142.59
		c-0.97-7.98-2.28-15.93-3.02-23.93c-0.04-26.04-0.05-52.08,0-78.11c0.8-6.31,2.71-12.45,3.07-18.82
		c0.71-5.08-0.26-10.26,0.84-15.29c4.99-26.22,13.03-52.41,28.01-74.75c-6.48,2.2-13.26-0.53-18.48-4.4
		c-8.62-6.37-15.43-14.83-21.56-23.54c3.84-8.67,11.19-16.7,21.12-17.65c5.19,2.83,8.89,7.76,11.57,12.92
		c4.78,9.57,6.86,20.15,9.39,30.47c47.27-4.45,94.62-9.39,142.16-9.06c35.79,0.23,71.81,3.27,106.5,12.46
		c0.02,2.44-0.45,5.05-2.61,6.52c-1.54,1.6-4.87,3.16-3.47,5.86c2.58,2.5,6.28,3.29,9.29,5.16c-0.12,1.09-0.15,2.22-0.44,3.3
		c-2.1,2.2-5.91,1.25-7.79,3.78c-0.22,1.78,1.38,3.02,2.26,4.39c4.17,5.27,10.07,9.99,10.96,17.07c-2.3,0.72-4.67,1.2-7,1.81
		c6.22,3.93,13.78,5.3,19.62,9.95c-0.01,0.76-0.04,2.28-0.05,3.04c-2.08,0.46-4.19,0.79-6.23,1.38c-0.02,1.2,0.99,1.99,1.65,2.9
		c3.32,3.9,6.65,8.22,7.49,13.41c0.36,2.7-1.13,5.15-2.9,7.04c4.8,13.83,18.86,21.56,24.05,35.16c-0.12,0.41-0.38,1.24-0.51,1.66
		c-2.87,0.79-5.85-0.04-8.76-0.12c-0.07,2.4901,1.47,5.6801-0.64,7.69c-1.44,0.98-3.05,1.69-4.58,2.51
		c2.14,1.76,4.42,3.48,7.15,4.24c10.26,3.11,21.35,1.2401,31.58,4.53c3.74,1.1,6.99,3.85,8.3,7.58c-5.21,2.08-10.9,0.38-16.22,1.9
		c0.68,1.16,1.57,2.2,2.97,2.49c6.2,2.12,12.84,1.23,19.25,1.61c-0.14,4.21,3.17,7.37,7.07,8.25c10.86,2.83,22.21,1.24,33.27,2.49
		c-5.97-12.46-20.31-15.97-30.9-23.17c-20.98-17.37-40.43-37.3199-53.61-61.39c-10.56-18.9-17.23-39.84-20.42-61.22
		c-1.07-7.31-2.02-14.69-1.61-22.09c0.39-7.93,1.62-15.79,1.81-23.72c16.62-8.41,34.98-12.8,53.42-14.79
		c23.33-2.54,46.92-1.6,70.19,1.1c30.84,3.63,61.23,10.61,90.8,20.06c-8.07-11.55-23.38-17.16-37.06-14.26
		C628.21,470.96,637.69,453.74,648.25,437.37 M147.95,492.39c1.58,10.24,11.59,15.29,19.04,20.97c-1.85-9.12-6.74-17.57-13.9-23.53
		C151.5,490.92,149.74,491.71,147.95,492.39z"/>
	<path d="M555.98,1190.05c4.69-2.5901,9.83-4.4301,15.13-5.2201c2.65,0.0801,5.31-0.0199,7.96-0.2c0.42,1.4,0.9,2.83,1.32,4.27
		c3.13,18.8099,9.02,38.1,22.41,52.28c15.42,16.75,38.88,23.58,61.09,23.6899c19.39-2.2,38.7-10.36,51.87-25.1
		c12.63-13.9,19.2-32.24,22.17-50.54c7.7-0.61,15.53,0.9,22.37,4.53c12.55,6.54,21.93,17.55,33.85,25.05
		c3.44,2.36,7.59,3.5,10.88,6.1299c16.64,12.91,33.24,26.1801,52.03,35.89c2.15,1.16,4.56,2.01,6.36,3.76
		c19.78,19.7201,48.42,27.8401,66.98,49.02c1.59,1.96,4.17,2.53,6.3199,3.6901c15.7401,7.36,27.54,20.99,43.3101,28.2699
		c14.84-2.1399,27.24-11.6399,37.3799-22.1499c9.5001-9.4801,19.09-19.66,31.92-24.55c0.1801,11.09-4,21.97-11.0599,30.46
		c-11.12,13.55-26.59,22.28-40.53,32.52c23.33,34.49,43.4401,71.1801,59.59,109.5701c32.3401,76.45,48.3,159.1799,51.6001,241.9399
		c-5.64-3.52-12.55-3.74-18.89-2.4399c-8.6801,1.6899-17.4701,3.87-26.36,2.6499c-15.52-16.36-21.14-39.9299-38.4401-54.8199
		c1.42,16.03,3.72,32.41-0.0699,48.3101c-12.2401,5.5499-26.0601,4.6899-38.89,7.99c-31.89-53.39-62.72-107.4701-96.77-159.55
		c-2.03-3.42-4.72-6.46-6.34-10.1c5.58-6.79,16.26-9.9,23.98-4.89c0.5-2.35,0.97-5.8101,3.88-6.27c2.8199-0.2,5.62,0.5,8.45,0.55
		c0.57-1.77,0.83-3.6001,0.96-5.41c4.92,0.9,9.89,2.91,13.01,7.03c4.23,5.2899,5.46,12.2,6.22,18.76
		c12.83,2.1799,22.14,16.1699,19.58,28.88c7.27,0.7999,7.05,11.6599,14.67,11.85c2.61,5.86,1.03,12.34-0.43,18.28
		c3.76-0.7001,4.36-6.3301,8.51-6.3101c1.74,0.49,2.71,2.12,3.75,3.49c6.55,8.96,11.1,19.1901,17.57,28.21
		c5.04,6.88,11.65,13.04,19.97,15.5901c-9.48-18.41-21.0099-35.67-33.18-52.39c-11.13-15.8201-23.64-30.6901-33.45-47.39
		c-16.49-26.27-32.97-52.9-54.27-75.61c-0.66,5.86,1.19,11.6799,4.61,16.4299c4.27,6.15,8.21,12.9501,8.46,20.65
		c-11.96,10.0701-25.53,18.29-40.31,23.4601c-24.2401,8.59-50.25,10.3999-75.77,10.2599c0.49,27.28,4.99,54.29,6.59,81.5
		c1.15,19.8,1.71,39.91-2.28,59.4501c-1.53,7.6-4.02,15-7.5,21.9399c-6.54,0.02-13.07-0.02-19.6,0.02
		c-0.04-6.5499,0.08-13.1-0.07-19.65c-5.18-1.3999-10.59-2.49-15.95-1.5399c-3.38,7.74-1.71,16.52-4.52,24.4299
		c-7.58,1.36-15.21-1.01-22.82-0.11c2.5-7.97,1.26-16.4299,1.36-24.63c-5.17-1.96-10.75-0.95-16.11-0.88
		c-2.7,8.25-2.32,17.09-4.45,25.48c-5.96-0.26-12.19,1.2301-17.9-1.0599c2.84-26.42,5.34-52.92,5.36-79.51
		c0.1-22.58-1.08-45.3-5.8-67.4301c-2.58-11.9199-6.42-23.6799-12.59-34.26c-11.25,0.3-13.56,14.66-24.11,16.42
		c-7.25-6.3099-11.74-15.17-19.14-21.33c-2.23-2.41-5.79-1.03-8.3,0.1599c-7.22,3.7301-9.99,12-15.7,17.3301
		c-1.79,1.5-4.8,3.03-6.79,1.03c-9.27-7.4801-12.41-19.8201-20.97-27.9301c-7.2401,7.12-16.19,12.61-21.9901,21.11
		c-2.9,4.13-4.3,9.2001-3.94,14.25c5-1.4,10.27-2.54,14.54-5.66c3.31-2.34,5.73-5.6399,8.1-8.86c6.57,5.73,15,9.02,20.97,15.48
		c2.32,2.42,3.82,5.4701,4.92,8.62c5.88-0.24,12.01-3.37,17.64-0.1899c8.76,22.04,12.68,45.66,14.92,69.17
		c2.52,31.38,1.95,63.33-5.17,94.11c-23.41,4.97-47.67,3.74-71.21,0.37c-10.83-1.65-21.58-3.87-32.12-6.87
		c6.19-38.8101,9.59-78.2001,7.5-117.5c-0.62-6.74-0.21-13.7001-2.64-20.12c-12.61-41.52-29.44-81.5901-42.55-122.9401
		c-7.09-22.6-13.29-45.5399-17.14-68.9299c-0.26-13.03-0.03-26.0701-0.1-39.1001c0.26-7.98-0.77-16.08,1.03-23.9299
		c6.88-37.53,19.54-74.25,39.19-107.04C532.03,1211.38,541.93,1198.14,555.98,1190.05 M565.17,1694.12
		c-4.77,8.26-3.69,18.28-5.97,27.3c3.69-0.01,7.38-0.03,11.07-0.01c5.38-8.65,8.07-18.78,8.07-28.9401
		C574.19,1690.34,567.91,1689.37,565.17,1694.12 M595.75,1693.78c-5.5,8-5.88,18.24-6.16,27.63c4.31,0,8.62-0.02,12.93,0.01
		c3.87-8.63,5.05-18.16,6.23-27.4401C605.33,1690.54,598.84,1689.1899,595.75,1693.78z"/>
	<path fill="#FEFEFE" d="M147.95,492.39c1.79-0.68,3.55-1.47,5.14-2.56c7.16,5.96,12.05,14.41,13.9,23.53
		C159.54,507.68,149.53,502.63,147.95,492.39z"/>
	<path fill="#FEFEFE" d="M565.17,1694.12c2.74-4.75,9.02-3.78,13.17-1.65c0,10.16-2.69,20.29-8.07,28.9401
		c-3.69-0.02-7.38,0-11.07,0.01C561.48,1712.4,560.4,1702.38,565.17,1694.12z"/>
	<path fill="#FEFEFE" d="M595.75,1693.78c3.09-4.5901,9.58-3.24,13,0.2c-1.18,9.28-2.36,18.8101-6.23,27.4401
		c-4.31-0.03-8.62-0.01-12.93-0.01C589.87,1712.02,590.25,1701.78,595.75,1693.78z"/>
	<path fill="#6395D4" d="M1123.74,554.78c2.24-2.35,4.64-4.65,7.66-5.98c1.86,49.62,0.97,99.43-5.14,148.75
		c-1.41,12.24-3.1,24.51-6.53,36.38c-4.51,15.62-10.4399,30.89-13.39,46.94c-0.8099,3.88-0.7,7.93-1.7799,11.77
		c-27.9801,69.3-65.5,135.46-115.8301,191.07c-24.96,27.79-53.08,52.6199-82.96,74.9999c-14.66,11.13-29.66,21.8-44.61,32.52
		c-18.24,12.86-38.37,22.65-58.24,32.66c-17.73,9.64-37.4,15.0699-54.9,25.15c-3.12,2.09-6.9,3.74-9.05,6.8999
		c-1.34,10.3601-6.52,19.65-8.54,29.8501c-3.34,0.26-6.92-0.55-10.09,0.5499c-0.58,1.78-0.8,3.66-1.33,5.48
		c-0.85,1.3501-1.77,2.6901-2.69,4.02c-0.18-0.7899-0.53-2.36-0.71-3.15c-0.1-5.1,0.39-10.21-0.22-15.2899
		c-0.38-4.13-0.85-9.3301,2.96-12.0701c5.11-3.3999,11.73-4.0199,16.3-8.36c-5.82,0.53-10.94,3.49-16.4,5.28
		c-2.4,0.59-5.61,1.11-7.27-1.1801c-3.05-3.6899-4.61-8.5299-8.5-11.5399c-4.99-4.8301-11.94-8.62-14.01-15.6801
		c4.39-0.97,7.54,2.7101,11.52,3.49c6.06-0.65,11.45-3.9199,17-6.23c12.44-5.27,23.14-13.67,34.3-21.09l1.12,0.1
		c0.1,0.72,0.31,2.17,0.41,2.9c6.61-1.0701,12.46-4.6,18.07-8.0601c10.19-6.6,19.08-14.9299,28.04-23.0699
		c6.34-6.01,13.37-11.24,19.66-17.3101c15.0099-13.64,28.8-28.5599,42.1299-43.83c36.66-40.84,60.86-90.56,88.38-137.55
		c21.2-38.16,36.4-79.42,47.36-121.61c13.33-51.23,20.33-103.8701,24.4-156.58c0.33,1.11,0.68,2.22,1.07,3.33
		c0.62-3.94-0.54-8.69,2.54-11.81c2.38,4.21,4.03,8.81,6.8101,12.81c3.08,7.83,6.6599,15.48,10.34,23.0699
		c4.5699,10.08,8.73,20.35,12.41,30.8c6.7999-3.9,9.37-11.76,13.08-18.18c10.58-17.38,22.5701-33.92,31.96-52
		C1106.3199,579.71,1113.21,565.87,1123.74,554.78z"/>
	<path fill="#6395D4" d="M646.22,1143.3c3.23-1.03,6.6201-0.14,9.89,0.2c6.92,1.11,14.2,1.61,20.43,5.14
		c8.11,4.24,14.54,11.5,17.9901,19.96c4.6,10.7001,5.83,23.12,2.15,34.28c-2.9,8.96-9.48,16.6899-17.96,20.83
		c-17.04,8.66-39.16,7.89-54.61-3.7899c-16.25-12.53-19.05-37.8501-7.83-54.5901C623.07,1154.5699,634.12,1146.92,646.22,1143.3z"/>
	<path fill="#6F90BC" d="M1021.61,592.98c5.97,3.13,8.08,10.28,9.67,16.36c-2.78-4-4.4301-8.6-6.8101-12.81
		c-3.08,3.12-1.92,7.87-2.54,11.81c-0.39-1.11-0.74-2.22-1.07-3.33C1020.75,600.99,1021.38,596.99,1021.61,592.98z"/>
	<path fill="#6F90BC" d="M613.91,1138.88c4.9-3.87,10.28-7.36,16.3701-8.99c-14.36,7.24-25.01,20.26-31.97,34.51
		c-0.36-0.7101-1.1-2.14-1.47-2.85C600.13,1152.5,606.47,1144.86,613.91,1138.88z"/>
	<path fill="#ADB1B8" d="M647.33,1126.42c1.17-0.86,3-0.91,4.26-0.15C651.26,1127.58,647.57,1127.85,647.33,1126.42z"/>
	<path fill="#6B94C2" d="M663.54,1127.1801c6.51-0.52,13.41-0.91,19.56,1.6799c2.25,0.85,2.82,3.3201,3.52,5.36
		C678.83,1132.17,671.43,1128.86,663.54,1127.1801z"/>
	<path fill="#6594D2" d="M588.95,1166.5601c3.58,0.3999,6.43-1.9501,7.89-5.01c0.37,0.71,1.11,2.1399,1.47,2.85
		c-3.25,7.3099-5.75,15.3199-4.53,23.41c-2.86-2.7301-6.95-2.4801-10.47-1.4401c-1.51,0.12-2.42,1.17-2.92,2.53
		c-0.42-1.4401-0.9-2.87-1.32-4.27c-2.65,0.1801-5.31,0.28-7.96,0.2c2.19-1.83,5.44-0.45,8.07-0.73
		c-0.28-5.14-1.47-10.58,0.41-15.53C581.25,1164.97,585.89,1167.08,588.95,1166.5601z"/>
	<path fill="#6E91C1" d="M716.32,1195.84c0.92-1.33,1.84-2.6699,2.69-4.02c0.3,3.4801-2.88,5.79-2.97,9.1801
		c-1.69,15.27-12.09,28.08-24,37.0699c-17.03,12.8301-40.72,14.8-60.33,7.1101c-17.25-6.4301-32.29-21.52-34.73-40.29
		c6.4,7.58,10.5,16.71,16.42,24.62c4.44,6.0699,10.72,10.85,17.89,13.1899c17.09,5.92,36.82,6.1901,53.05-2.48
		c14.16-6.85,24.64-20.1699,28.83-35.23c1.2-4.02,1.66-8.2,2.44-12.3C715.79,1193.48,716.14,1195.05,716.32,1195.84z"/>
</g>
</svg>
